<!-- Generated by IcoMoon.io -->
<svg version="1.1" xmlns="http://www.w3.org/2000/svg" width="14" height="14" viewBox="0 0 14 14">
<title>doing</title>
<path d="M7 14c-3.866 0-7-3.134-7-7s3.134-7 7-7c3.866 0 7 3.134 7 7s-3.134 7-7 7zM11 7c0-2.209-1.791-4-4-4s-4 1.791-4 4c0 2.209 1.791 4 4 4 0.552 0 1-0.448 1-1s-0.448-1-1-1c-1.105 0-2-0.895-2-2s0.895-2 2-2c1.105 0 2 0.895 2 2 0 0.552 0.448 1 1 1s1-0.448 1-1z"></path>
<path d="M7.5 11c-0.276 0-0.5-0.224-0.5-0.5s0.224-0.5 0.5-0.5c0.276 0 0.5 0.224 0.5 0.5s-0.224 0.5-0.5 0.5zM6.4 11c-0.221 0-0.4-0.179-0.4-0.4s0.179-0.4 0.4-0.4c0.221 0 0.4 0.179 0.4 0.4s-0.179 0.4-0.4 0.4zM7.5 10c-0.276 0-0.5-0.224-0.5-0.5s0.224-0.5 0.5-0.5c0.276 0 0.5 0.224 0.5 0.5s-0.224 0.5-0.5 0.5zM6.5 10c-0.276 0-0.5-0.224-0.5-0.5s0.224-0.5 0.5-0.5c0.276 0 0.5 0.224 0.5 0.5s-0.224 0.5-0.5 0.5zM5.5 9.8c-0.166 0-0.3-0.134-0.3-0.3s0.134-0.3 0.3-0.3c0.166 0 0.3 0.134 0.3 0.3s-0.134 0.3-0.3 0.3zM4.4 9.8c-0.221 0-0.4-0.179-0.4-0.4s0.179-0.4 0.4-0.4c0.221 0 0.4 0.179 0.4 0.4s-0.179 0.4-0.4 0.4zM5.4 8.8c-0.221 0-0.4-0.179-0.4-0.4s0.179-0.4 0.4-0.4c0.221 0 0.4 0.179 0.4 0.4s-0.179 0.4-0.4 0.4zM4.4 8.8c-0.221 0-0.4-0.179-0.4-0.4s0.179-0.4 0.4-0.4c0.221 0 0.4 0.179 0.4 0.4s-0.179 0.4-0.4 0.4zM3.3 8.6c-0.166 0-0.3-0.134-0.3-0.3s0.134-0.3 0.3-0.3c0.166 0 0.3 0.134 0.3 0.3s-0.134 0.3-0.3 0.3zM3.3 7.6c-0.166 0-0.3-0.134-0.3-0.3s0.134-0.3 0.3-0.3c0.166 0 0.3 0.134 0.3 0.3s-0.134 0.3-0.3 0.3zM4.5 7.8c-0.166 0-0.3-0.134-0.3-0.3s0.134-0.3 0.3-0.3c0.166 0 0.3 0.134 0.3 0.3s-0.134 0.3-0.3 0.3zM4.35 6.7c-0.193 0-0.35-0.157-0.35-0.35s0.157-0.35 0.35-0.35c0.193 0 0.35 0.157 0.35 0.35s-0.157 0.35-0.35 0.35zM4.3 5.6c-0.166 0-0.3-0.134-0.3-0.3s0.134-0.3 0.3-0.3c0.166 0 0.3 0.134 0.3 0.3s-0.134 0.3-0.3 0.3zM5.3 5.6c-0.166 0-0.3-0.134-0.3-0.3s0.134-0.3 0.3-0.3c0.166 0 0.3 0.134 0.3 0.3s-0.134 0.3-0.3 0.3zM5.3 4.6c-0.166 0-0.3-0.134-0.3-0.3s0.134-0.3 0.3-0.3c0.166 0 0.3 0.134 0.3 0.3s-0.134 0.3-0.3 0.3zM6.25 5c-0.138 0-0.25-0.112-0.25-0.25s0.112-0.25 0.25-0.25c0.138 0 0.25 0.112 0.25 0.25s-0.112 0.25-0.25 0.25zM6.25 3.5c-0.138 0-0.25-0.112-0.25-0.25s0.112-0.25 0.25-0.25c0.138 0 0.25 0.112 0.25 0.25s-0.112 0.25-0.25 0.25zM8.25 3.5c-0.138 0-0.25-0.112-0.25-0.25s0.112-0.25 0.25-0.25c0.138 0 0.25 0.112 0.25 0.25s-0.112 0.25-0.25 0.25zM7.25 4.5c-0.138 0-0.25-0.112-0.25-0.25s0.112-0.25 0.25-0.25c0.138 0 0.25 0.112 0.25 0.25s-0.112 0.25-0.25 0.25zM8.25 5c-0.138 0-0.25-0.112-0.25-0.25s0.112-0.25 0.25-0.25c0.138 0 0.25 0.112 0.25 0.25s-0.112 0.25-0.25 0.25zM3.3 6.6c-0.166 0-0.3-0.134-0.3-0.3s0.134-0.3 0.3-0.3c0.166 0 0.3 0.134 0.3 0.3s-0.134 0.3-0.3 0.3zM3.3 5.6c-0.166 0-0.3-0.134-0.3-0.3s0.134-0.3 0.3-0.3c0.166 0 0.3 0.134 0.3 0.3s-0.134 0.3-0.3 0.3zM4.3 4.6c-0.166 0-0.3-0.134-0.3-0.3s0.134-0.3 0.3-0.3c0.166 0 0.3 0.134 0.3 0.3s-0.134 0.3-0.3 0.3zM5.4 10.8c-0.221 0-0.4-0.179-0.4-0.4s0.179-0.4 0.4-0.4c0.221 0 0.4 0.179 0.4 0.4s-0.179 0.4-0.4 0.4z"></path>
</svg>
