<?xml version="1.0" encoding="UTF-8"?>
<svg width="60px" height="78px" viewBox="0 0 60 78" version="1.1" xmlns="http://www.w3.org/2000/svg" xmlns:xlink="http://www.w3.org/1999/xlink">
    <!-- Generator: Sketch 50.2 (55047) - http://www.bohemiancoding.com/sketch -->
    <title>ID Copy 2</title>
    <desc>Created with Sketch.</desc>
    <defs></defs>
    <g id="Page-1" stroke="none" stroke-width="1" fill="none" fill-rule="evenodd">
        <g id="首页" transform="translate(-1050.000000, -201.000000)">
            <g id="Group-5" transform="translate(980.000000, 161.000000)">
                <g id="geo" transform="translate(60.000000, 40.000000)">
                    <g id="Group-3" stroke-width="1" fill-rule="evenodd" transform="translate(20.000000, 15.000000)">
                        <circle id="Oval-3-Copy" stroke="#34C3FF" stroke-width="5" cx="20" cy="15" r="12.5"></circle>
                        <path d="M35,40 L40,40 C40,28 25,25 20,25 C15,25 0,28.4020203 0,40 L5,40 C5,34.2759286 13.1326668,30 20,30 C27.1824677,30 35,34.0204452 35,40 Z" id="Path" fill="#34C3FF"></path>
                    </g>
                    <path d="M41.8228758,74.485874 C58.9957391,56.1888984 67.5,41.2816517 67.5,30 C67.5,13.5536452 55.26952,2.5 40,2.5 C24.73048,2.5 12.5,13.5536452 12.5,30 C12.5,41.281652 21.0042613,56.1888992 38.1771242,74.485874 C39.1220201,75.49262 40.7041379,75.5427604 41.7108838,74.597866 C41.7493879,74.5617275 41.7867373,74.5243781 41.8228758,74.485874 Z" id="Oval-4" stroke="#34C3FF" stroke-width="5"></path>
                </g>
            </g>
        </g>
    </g>
</svg>